<?xml version="1.0" standalone="no"?>
<!DOCTYPE svg PUBLIC "-//W3C//DTD SVG 20010904//EN"
 "http://www.w3.org/TR/2001/REC-SVG-20010904/DTD/svg10.dtd">
<svg version="1.0" xmlns="http://www.w3.org/2000/svg"
 width="273.000000pt" height="49.000000pt" viewBox="0 0 273.000000 49.000000"
 preserveAspectRatio="xMidYMid meet">

<g transform="translate(0.000000,49.000000) scale(0.100000,-0.100000)"
fill="#000000" stroke="none">
<path d="M1077 443 c-19 -18 2 -23 98 -23 87 0 105 3 105 15 0 12 -18 15 -98
15 -54 0 -102 -3 -105 -7z"/>
<path d="M2464 366 c-47 -21 -74 -61 -74 -113 0 -51 14 -83 36 -83 13 0 13 4
-1 30 -19 38 -19 65 2 101 34 57 122 64 163 12 24 -31 26 -89 4 -121 -13 -19
-13 -22 -1 -22 40 0 58 79 31 135 -12 26 -30 43 -58 56 -49 22 -61 23 -102 5z"/>
<path d="M228 247 l122 -122 -32 -33 c-28 -28 -30 -32 -13 -32 13 0 79 59 175
155 108 109 149 155 135 155 -12 0 -65 -45 -132 -112 l-113 -113 -113 113
c-67 67 -120 112 -132 112 -14 0 16 -35 103 -123z"/>
<path d="M1000 355 c0 -12 16 -15 85 -15 l85 0 0 -105 c0 -87 3 -105 15 -105
12 0 15 18 15 105 l0 105 80 0 c64 0 80 3 80 15 0 13 -27 15 -180 15 -153 0
-180 -2 -180 -15z"/>
<path d="M1978 318 c3 -44 0 -59 -20 -87 -43 -64 -69 -76 -174 -79 l-94 -4 0
-44 c0 -54 27 -64 32 -11 l3 32 85 5 c111 7 150 31 185 112 23 57 18 128 -9
128 -9 0 -11 -15 -8 -52z"/>
<path d="M2405 113 c-3 -10 22 -13 105 -13 62 0 110 4 110 9 0 15 -209 19
-215 4z"/>
</g>
</svg>
