<?xml version="1.0" encoding="utf-8"?>
<!DOCTYPE svg PUBLIC "-//W3C//DTD SVG 1.1//EN" "http://www.w3.org/Graphics/SVG/1.1/DTD/svg11.dtd">
<svg version="1.1" xmlns="http://www.w3.org/2000/svg" xmlns:xlink="http://www.w3.org/1999/xlink" x="0px" y="0px" viewBox="0 0 1000 1000" enable-background="new 0 0 1000 1000" xml:space="preserve">
    <g>
        <path d="M101.6,710.5" fill="rgb(218, 12, 12)"/>
        <path d="M500,10C229.4,10,10,229.4,10,500c0,270.6,219.4,490,490,490c270.6,0,490-219.4,490-490C990,229.4,770.6,10,500,10z M500,929.7C263.6,929.7,71.3,736.4,71.3,500C71.3,263.6,263.6,71.3,500,71.3c236.4,0,428.8,192.3,428.8,428.7C928.8,736.4,736.4,929.7,500,929.7z M673.2,326.8c-12-12-31.4-12-43.3,0L500,456.7L370.1,326.8c-11.9-12-31.3-12-43.3,0c-11.9,12-11.9,31.3,0,43.3L456.7,500L326.8,629.9c-11.9,11.9-11.9,31.3,0,43.3c12,11.9,31.4,11.9,43.3,0L500,543.3l129.9,129.9c12,11.9,31.3,11.9,43.3,0c12-12,12-31.4,0-43.3L543.3,500l129.9-129.9C685.2,358.1,685.2,338.7,673.2,326.8z" fill="rgb(218, 12, 12)"/>
    </g>
</svg>