<?xml version="1.0" encoding="utf-8"?>
<!DOCTYPE svg PUBLIC "-//W3C//DTD SVG 1.1//EN" "http://www.w3.org/Graphics/SVG/1.1/DTD/svg11.dtd">
<svg version="1.1" xmlns="http://www.w3.org/2000/svg" xmlns:xlink="http://www.w3.org/1999/xlink" x="0px" y="0px" viewBox="0 0 1000 1000" enable-background="new 0 0 1000 1000" xml:space="preserve">
    <g>
        <g>
            <g id="Layer_2_19_">
                <g>
                    <path d="M958.1,334.7c-7.7-20.3-30.4-30.6-50.8-22.9c-20.3,7.7-30.6,30.4-22.9,50.8c37.9,100,35.5,209.2-6.7,307.5c-43.3,100.9-123.2,178.9-225.2,219.6c-101.9,40.7-213.6,39.4-314.5-3.9c-29.3-12.5-56.6-28.2-81.6-46.5c-61.4-45-109.1-106.3-138-178.7C77.7,558.7,79,447,122.3,346c43.3-100.9,123.3-178.9,225.2-219.7c97.5-39,204-39.3,301.4-1.3L621,172.2c-7.7,13-1.8,21.6,13.1,19.2L766.7,170c14.9-2.4,22.9-16,17.9-30.2l-45-126.6c-5-14.2-15.4-15.2-23.1-2.2l-26.9,45.4c-119.3-50.1-251-51.3-371.3-3.2C196.8,101.8,101.5,194.8,49.9,315C-1.7,435.2-3.3,568.4,45.3,689.8c34.5,86.3,91.4,159.3,164.5,212.9c29.8,21.9,62.4,40.5,97.2,55.4c120.2,51.6,253.3,53.2,374.8,4.7c121.5-48.5,216.8-141.5,268.3-261.8C1000.4,584,1003.2,453.8,958.1,334.7z" fill="rgb(231, 197, 46)"/>
                    <path d="M482.7,193.6c-17.6,0-31.9,14.3-31.9,31.9v317.7l290.6,150.2c4.7,2.4,9.7,3.6,14.6,3.6c11.5,0,22.7-6.3,28.4-17.2c8.1-15.6,2-34.9-13.7-43L514.6,504.3V225.4C514.6,207.8,500.4,193.6,482.7,193.6z" fill="rgb(231, 197, 46)"/>
                </g>
            </g>
        </g>
        <g></g><g></g><g></g><g></g><g></g><g></g><g></g><g></g><g></g><g></g><g></g><g></g><g></g><g></g><g></g>
    </g>
</svg>